<svg width="660" height="122" viewBox="0 0 660 122" fill="none" xmlns="http://www.w3.org/2000/svg">
<path d="M156.495 23.0482C156.008 23.3168 154.894 25.0126 147.404 36.7847C142.698 44.1618 138.452 50.889 137.965 51.7227C135.389 56.0754 133.663 60.5696 132.786 65.1061C132.451 66.8302 132.424 67.3672 132.41 70.2785C132.396 73.1331 132.438 73.7268 132.716 75.1258C134.247 82.7715 139.078 88.9472 146.276 92.4662C155.312 96.8755 166.254 95.5896 173.967 89.2017C182.348 82.2626 184.826 71.8755 180.928 60.0326C180.135 57.6159 179.035 55.0862 177.824 52.8958C176.891 51.1857 159.641 23.995 159.154 23.4439C158.472 22.6948 157.386 22.5252 156.495 23.0482ZM165.113 41.0245C174.176 55.2698 173.633 54.4077 174.942 57.1354C177.35 62.1806 178.395 66.6464 178.228 71.3101C178.116 74.5888 177.573 76.7792 176.195 79.4928C173.48 84.8347 167.981 88.8767 161.66 90.1626C160.379 90.417 159.641 90.4736 157.525 90.4736C155.27 90.4736 154.727 90.4312 153.182 90.0919C151.024 89.6256 149.84 89.2017 147.849 88.2125C142.991 85.7675 139.162 81.4005 137.644 76.5673C136.935 74.3061 136.74 72.6668 136.823 69.812C136.948 65.5724 137.923 61.8555 140.109 57.2766C141.557 54.2382 140.429 56.0614 156.787 30.3688C157.205 29.7187 157.595 29.2381 157.651 29.3088C157.706 29.3795 161.075 34.6508 165.113 41.0245Z" fill="#2C2C2C"/>
<path d="M155.298 64.5549V66.9575H152.931H150.55L150.592 69.1762L150.634 71.409L152.973 71.4514L155.298 71.4798V73.8116V76.1435H157.525H159.753V73.8116V71.4798L162.092 71.4514L164.417 71.409L164.459 69.1762L164.5 66.9575H162.12H159.753V64.5549V62.1523H157.525H155.298V64.5549Z" fill="#2C2C2C"/>
<path d="M170.891 67.2685C170.069 67.8479 169.888 68.2154 169.763 69.7416C169.443 73.2606 168.259 75.861 165.934 78.1362C163.763 80.2561 161.646 81.203 158.18 81.5845C156.676 81.7543 156.481 81.8107 156.105 82.1782C154.699 83.5065 155.27 85.6405 157.149 86.0929C157.734 86.2341 160.282 85.9231 161.786 85.5416C163.261 85.1601 165.531 84.1142 166.825 83.224C169.847 81.1465 172.185 78.0374 173.299 74.6173C173.926 72.7095 174.134 71.4941 174.148 69.7559C174.162 68.5828 174.121 68.3425 173.87 67.9894C173.383 67.3109 172.728 66.9575 172.004 66.9575C171.559 66.9575 171.211 67.0566 170.891 67.2685Z" fill="#2C2C2C"/>
<path d="M58.6459 45.4915C57.9977 43.0948 57.0487 40.8508 55.7985 38.7594C54.5486 36.6447 52.9976 34.8 51.1459 33.2258C49.3171 31.628 47.1992 30.3826 44.7916 29.4897C42.4074 28.5966 39.7454 28.1502 36.8056 28.1502C32.176 28.1502 28.0325 29.372 24.375 31.816C20.7177 34.2597 17.8241 37.7842 15.6945 42.3898C13.588 46.9954 12.5347 52.5409 12.5347 59.0263C12.5347 65.4882 13.5995 71.0218 15.7292 75.6274C17.8588 80.2328 20.7755 83.7693 24.4791 86.2364C28.206 88.6804 32.4653 89.9022 37.257 89.9022C41.6319 89.9022 45.4976 88.9153 48.8543 86.9416C52.2107 84.9676 54.8264 82.148 56.7013 78.4822C58.5994 74.8166 59.5255 70.4579 59.4792 65.4059L61.5625 66.0754H38.7848V60.1541H65.7985V66.0754C65.7985 72.2319 64.5718 77.5542 62.118 82.0421C59.6644 86.5303 56.2964 89.9961 52.0139 92.4398C47.7314 94.8837 42.8124 96.1056 37.257 96.1056C31.0532 96.1056 25.6249 94.5899 20.9723 91.5587C16.3194 88.504 12.6967 84.204 10.1042 78.6586C7.53471 73.0896 6.25 66.5454 6.25 59.0263C6.25 53.3632 6.99074 48.2525 8.47222 43.694C9.9537 39.1353 12.0486 35.2349 14.7569 31.9921C17.4884 28.7494 20.7177 26.2703 24.4444 24.5551C28.1712 22.8163 32.2917 21.9468 36.8056 21.9468C40.6945 21.9468 44.2477 22.5696 47.4652 23.8148C50.7059 25.0603 53.5533 26.7757 56.0069 28.961C58.4837 31.1226 60.5092 33.6253 62.0834 36.4685C63.6806 39.2881 64.757 42.2958 65.3125 45.4915H58.6459ZM81.9184 95.1186V22.9337H88.4115V89.1973H122.3V95.1186H81.9184Z" fill="#2C2C2C"/>
<path d="M252.546 47.5594H246.019C245.532 45.0921 244.652 42.8128 243.379 40.7216C242.13 38.6069 240.556 36.7622 238.657 35.1878C236.759 33.6136 234.606 32.3917 232.2 31.5222C229.792 30.6529 227.187 30.218 224.386 30.218C219.896 30.218 215.8 31.4047 212.094 33.778C208.415 36.1514 205.464 39.6408 203.241 44.2462C201.042 48.8282 199.942 54.4441 199.942 61.0942C199.942 67.7909 201.042 73.4304 203.241 78.0125C205.464 82.5945 208.415 86.0721 212.094 88.4453C215.8 90.7952 219.896 91.9701 224.386 91.9701C227.187 91.9701 229.792 91.5352 232.2 90.6659C234.606 89.7964 236.759 88.5864 238.657 87.0355C240.556 85.4611 242.13 83.6166 243.379 81.5019C244.652 79.3869 245.532 77.096 246.019 74.6287H252.546C251.967 77.942 250.879 81.0319 249.282 83.8987C247.708 86.7419 245.695 89.2325 243.241 91.3708C240.81 93.5091 238.009 95.1775 234.838 96.3759C231.666 97.5742 228.183 98.1735 224.386 98.1735C218.415 98.1735 213.113 96.6578 208.485 93.6266C203.854 90.5719 200.22 86.2719 197.581 80.7264C194.965 75.181 193.657 68.6369 193.657 61.0942C193.657 53.5513 194.965 47.0073 197.581 41.4617C200.22 35.9163 203.854 31.6281 208.485 28.5967C213.113 25.5421 218.415 24.0146 224.386 24.0146C228.183 24.0146 231.666 24.6139 234.838 25.8124C238.009 26.9871 240.81 28.6556 243.241 30.8173C245.695 32.9556 247.708 35.4463 249.282 38.2895C250.879 41.1327 251.967 44.2228 252.546 47.5594ZM326.097 61.0942C326.097 68.6133 324.777 75.1575 322.139 80.7264C319.499 86.2719 315.865 90.5719 311.235 93.6266C306.629 96.6578 301.329 98.1735 295.334 98.1735C289.337 98.1735 284.024 96.6578 279.396 93.6266C274.788 90.5719 271.166 86.2719 268.526 80.7264C265.911 75.1575 264.603 68.6133 264.603 61.0942C264.603 53.5748 265.911 47.0425 268.526 41.497C271.166 35.928 274.8 31.6281 279.431 28.5967C284.059 25.5421 289.361 24.0146 295.334 24.0146C301.329 24.0146 306.629 25.5421 311.235 28.5967C315.865 31.6281 319.499 35.928 322.139 41.497C324.777 47.0425 326.097 53.5748 326.097 61.0942ZM319.778 61.0942C319.778 54.6323 318.713 49.0985 316.582 44.4929C314.453 39.8639 311.548 36.3276 307.868 33.8838C304.187 31.4399 300.009 30.218 295.334 30.218C290.679 30.218 286.513 31.4399 282.832 33.8838C279.151 36.3276 276.236 39.8521 274.083 44.4577C271.953 49.0633 270.889 54.6087 270.889 61.0942C270.889 67.556 271.953 73.0897 274.083 77.6953C276.212 82.3007 279.117 85.8372 282.798 88.3043C286.479 90.7482 290.657 91.9701 295.334 91.9701C300.009 91.9701 304.187 90.7482 307.868 88.3043C311.571 85.8606 314.488 82.336 316.617 77.7304C318.747 73.1014 319.801 67.556 319.778 61.0942ZM397.181 25.0016V97.1865H390.863L348.849 36.7386H348.293V97.1865H341.801V25.0016H348.085L390.237 85.52H390.793V25.0016H397.181ZM411.783 30.923V25.0016H463.344V30.923H440.811V97.1865H434.317V30.923H411.783ZM477.962 97.1865V25.0016H500.914C505.961 25.0016 510.174 25.9298 513.553 27.7861C516.955 29.619 519.514 32.1684 521.227 35.4347C522.962 38.6772 523.83 42.4017 523.83 46.6078C523.83 50.8139 522.962 54.5264 521.227 57.7456C519.514 60.9649 516.967 63.4792 513.588 65.2885C510.208 67.0978 506.018 68.0025 501.019 68.0025H481.47V61.9753H500.844C504.55 61.9753 507.628 61.3526 510.08 60.1072C512.557 58.8618 514.399 57.0878 515.603 54.7849C516.829 52.4822 517.442 49.7564 517.442 46.6078C517.442 43.459 516.829 40.7098 515.603 38.36C514.374 35.9868 512.523 34.1539 510.046 32.8615C507.593 31.5691 504.491 30.923 500.74 30.923H484.456V97.1865H477.962ZM509.316 64.6187L526.816 97.1865H519.318L501.991 64.6187H509.316ZM597.946 61.0942C597.946 68.6133 596.626 75.1575 593.988 80.7264C591.348 86.2719 587.714 90.5719 583.083 93.6266C578.478 96.6578 573.177 98.1735 567.182 98.1735C561.185 98.1735 555.875 96.6578 551.245 93.6266C546.637 90.5719 543.015 86.2719 540.377 80.7264C537.759 75.1575 536.452 68.6133 536.452 61.0942C536.452 53.5748 537.759 47.0425 540.377 41.497C543.015 35.928 546.649 31.6281 551.279 28.5967C555.909 25.5421 561.21 24.0146 567.182 24.0146C573.177 24.0146 578.478 25.5421 583.083 28.5967C587.714 31.6281 591.348 35.928 593.988 41.497C596.626 47.0425 597.946 53.5748 597.946 61.0942ZM591.627 61.0942C591.627 54.6323 590.561 49.0985 588.431 44.4929C586.302 39.8639 583.397 36.3276 579.716 33.8838C576.035 31.4399 571.857 30.218 567.182 30.218C562.53 30.218 558.362 31.4399 554.681 33.8838C551 36.3276 548.085 39.8521 545.932 44.4577C543.801 49.0633 542.738 54.6087 542.738 61.0942C542.738 67.556 543.801 73.0897 545.932 77.6953C548.061 82.3007 550.966 85.8372 554.646 88.3043C558.327 90.7482 562.505 91.9701 567.182 91.9701C571.857 91.9701 576.035 90.7482 579.716 88.3043C583.42 85.8606 586.337 82.336 588.467 77.7304C590.596 73.1014 591.649 67.556 591.627 61.0942ZM613.649 97.1865V25.0016H620.141V91.2652H654.031V97.1865H613.649Z" fill="#2C2C2C"/>
</svg>
